<svg viewBox="0 0 442 464" fill="none" xmlns="http://www.w3.org/2000/svg">
<path fill-rule="evenodd" clip-rule="evenodd" d="M181.411 105H261.22C275.637 105.044 289.453 111.076 299.648 121.779C309.842 132.481 315.589 146.984 315.631 162.119V249.416C315.589 264.551 309.842 279.054 299.648 289.757C289.453 300.459 275.637 306.491 261.22 306.535H250.892L219.639 358.677L191.735 306.535H181.411C166.993 306.491 153.178 300.459 142.983 289.757C132.788 279.054 127.042 264.551 127 249.416V162.119C127.042 146.984 132.788 132.481 142.983 121.779C153.178 111.076 166.993 105.044 181.411 105Z" stroke="black" stroke-width="6.9999" stroke-miterlimit="2.6131"/>
<path d="M254.385 202.574C266.175 202.574 275.732 190.771 275.732 176.211C275.732 161.65 266.175 149.847 254.385 149.847C242.595 149.847 233.038 161.65 233.038 176.211C233.038 190.771 242.595 202.574 254.385 202.574Z" stroke="black" stroke-width="6.9999" stroke-miterlimit="2.6131"/>
<path d="M254.384 202.574V259.841" stroke="black" stroke-width="6.9999" stroke-miterlimit="2.6131"/>
<path d="M211.825 150.579V173.872C211.825 184.342 201.717 192.908 189.362 192.908C177.008 192.908 166.899 184.342 166.899 173.872V150.579" stroke="black" stroke-width="6.9999" stroke-miterlimit="2.6131"/>
<path d="M189.362 150.579V262.478" stroke="black" stroke-width="6.9999" stroke-miterlimit="2.6131"/>
</svg>
